<?xml version="1.0" encoding="UTF-8" standalone="no"?>
<!-- Created with Inkscape (http://www.inkscape.org/) -->

<svg
   xmlns:dc="http://purl.org/dc/elements/1.1/"
   xmlns:cc="http://creativecommons.org/ns#"
   xmlns:rdf="http://www.w3.org/1999/02/22-rdf-syntax-ns#"
   xmlns:svg="http://www.w3.org/2000/svg"
   xmlns="http://www.w3.org/2000/svg"
   xmlns:sodipodi="http://sodipodi.sourceforge.net/DTD/sodipodi-0.dtd"
   xmlns:inkscape="http://www.inkscape.org/namespaces/inkscape"
   version="1.1"
   width="310"
   height="150"
   id="svg2"
   inkscape:version="0.91 r13725"
   sodipodi:docname="hisc-apps-kwhirlmon-wide.svg">
  <sodipodi:namedview
     pagecolor="#888888"
     bordercolor="#666666"
     borderopacity="1"
     objecttolerance="10"
     gridtolerance="10"
     guidetolerance="10"
     inkscape:pageopacity="1"
     inkscape:pageshadow="2"
     inkscape:window-width="1920"
     inkscape:window-height="1017"
     id="namedview7"
     showgrid="false"
     fit-margin-top="0"
     fit-margin-left="0"
     fit-margin-right="0"
     fit-margin-bottom="0"
     inkscape:zoom="3.6875001"
     inkscape:cx="125.81644"
     inkscape:cy="72.853843"
     inkscape:window-x="1272"
     inkscape:window-y="-8"
     inkscape:window-maximized="1"
     inkscape:current-layer="svg2" />
  <defs
     id="defs4" />
  <metadata
     id="metadata7">
    <rdf:RDF>
      <cc:Work
         rdf:about="">
        <dc:format>image/svg+xml</dc:format>
        <dc:type
           rdf:resource="http://purl.org/dc/dcmitype/StillImage" />
        <dc:title />
      </cc:Work>
    </rdf:RDF>
  </metadata>
  <g
     transform="matrix(0.86598407,0,0,0.85102136,93.854227,-776.80812)"
     id="layer1">
    <path
       d="m 15.070045,16.596125 c 0.966004,1.1286 -1.044738,1.858966 -1.875808,1.605562 -2.252148,-0.686708 -2.392686,-3.650617 -1.335316,-5.357179 1.891387,-3.0526397 6.190752,-3.0937117 8.83855,-1.06507 3.885751,2.977113 3.818597,8.766459 0.794823,12.319921 C 17.46208,28.835564 10.137354,28.653193 5.6910027,24.623936 0.09572346,19.553527 0.39653983,10.67439 5.4366721,5.3412734 11.540948,-1.1178459 21.984279,-0.69694796 28.200705,5.3571891 35.526549,12.49178 34.984651,24.505013 27.914543,31.602593 19.751824,39.79703 6.1650627,39.133574 -1.8122315,31.046185 -10.87654,21.856779 -10.091165,6.6940375 -0.98557678,-2.1619608 9.2295172,-12.097053 25.969974,-11.189512 35.70394,-1.0650598 46.510486,10.175001 45.480607,28.494449 34.336792,39.105827"
       transform="matrix(2.1261224,0,0,2.3020376,26.995776,952.3391)"
       id="path2985"
       style="fill:none;stroke:#000000;stroke-width:2.2600584;stroke-linecap:round;stroke-linejoin:miter;stroke-miterlimit:4;stroke-dasharray:none;stroke-opacity:1"
       inkscape:connector-curvature="0" />
  </g>
  <path
     style="fill:#ffffff;stroke:#ffffff;stroke-width:0.25370204;stroke-miterlimit:4;stroke-dasharray:none;stroke-opacity:1"
     d="m 179.16334,111.73879 c -0.37493,-0.37475 -0.62209,-0.91413 -0.62209,-1.35762 0,-0.77185 0.33723,-1.24622 3.38291,-4.75868 10.50985,-12.12055 15.20998,-30.549524 12.04289,-47.219498 -3.91441,-20.603488 -18.51257,-35.891021 -38.02425,-39.819888 -3.80742,-0.766659 -12.19956,-0.833703 -15.798,-0.126208 -15.43601,3.034888 -27.1875,12.848091 -32.92841,27.497203 -2.32341,5.92865 -3.31494,11.969458 -3.10363,18.908604 0.20846,6.845539 1.56486,12.509478 4.36794,18.239187 8.5944,17.5676 28.00896,25.99897 45.47669,19.74965 11.20506,-4.00877 19.42674,-13.72394 22.18023,-26.209363 0.6599,-2.992263 0.7966,-10.22815 0.25449,-13.471247 -1.13895,-6.813701 -3.95424,-12.518554 -8.5479,-17.321327 -4.41877,-4.619924 -10.08428,-7.598514 -16.13502,-8.482831 -2.94779,-0.43082 -7.96991,-0.18815 -10.55062,0.509809 -2.53538,0.685697 -6.28313,2.440338 -8.32596,3.89808 -1.88857,1.34767 -5.02539,4.592908 -6.27845,6.495449 -3.02803,4.597507 -4.39714,9.307642 -4.38122,15.072661 0.0143,5.195959 1.03619,8.940299 3.5322,12.943096 6.91138,11.08361 22.38364,12.685063 29.66891,3.070879 2.33244,-3.078058 3.39075,-6.296124 3.39198,-10.31423 0.001,-3.962245 -1.18329,-7.150011 -3.55563,-9.568996 -1.63851,-1.670717 -2.96496,-2.455232 -5.05711,-2.990962 -4.96574,-1.271563 -9.57341,1.422727 -10.26006,5.999463 -0.34713,2.313744 0.92042,4.787242 2.45324,4.787242 0.64255,0 0.71291,-0.08547 0.71291,-0.865908 0,-1.225952 0.20897,-1.631313 1.07051,-2.076623 1.04714,-0.54124 2.08989,-0.08703 2.74448,1.195447 1.33615,2.617843 -0.22092,5.138966 -3.61313,5.850153 -1.22071,0.255926 -1.56996,0.233725 -2.61825,-0.166433 -1.63105,-0.622607 -3.00107,-1.916226 -3.83611,-3.622165 -0.97809,-1.998217 -1.1263,-5.120651 -0.36236,-7.634561 1.45279,-4.780721 5.93705,-7.979682 11.17682,-7.973265 3.9741,0.0049 7.18054,1.384316 10.1616,4.371639 3.01907,3.02542 4.6429,6.77089 4.96501,11.452096 0.26778,3.89157 -0.6153,7.833745 -2.61763,11.685512 -0.70669,1.359394 -1.62636,2.514733 -3.50227,4.399736 -2.20481,2.215477 -2.86492,2.713924 -4.95164,3.738999 -3.34556,1.64347 -5.76302,2.21958 -9.37736,2.23475 -10.97847,0.0461 -20.19791,-7.590089 -23.31934,-19.314689 -0.7964,-2.991411 -0.99483,-9.51497 -0.38857,-12.774264 3.48467,-18.733552 21.59039,-29.354634 39.42131,-23.125122 14.25188,4.979115 23.45037,19.616908 22.73024,36.171206 -0.61103,14.046151 -7.55887,26.019699 -19.16914,33.035089 -10.72989,6.48343 -25.07148,6.9396 -36.88871,1.17332 -8.11712,-3.96078 -14.66229,-10.40029 -19.09612,-18.787869 -2.4514,-4.637362 -4.14061,-9.852097 -5.03618,-15.547201 -0.578154,-3.676473 -0.562564,-11.324047 0.0307,-15.072661 2.66522,-16.840222 12.45369,-30.477501 26.82032,-37.366008 11.10094,-5.322677 23.67693,-6.075061 35.551,-2.126909 15.48336,5.148252 27.29081,17.241894 32.84802,33.644191 3.06554,9.04809 3.86964,19.653001 2.25857,29.787657 -1.80163,11.33342 -7.73786,23.44403 -15.30398,31.22194 -1.75318,1.80225 -2.54164,2.01319 -3.59385,0.96147 z"
     id="path4148"
     inkscape:connector-curvature="0" />
</svg>
