<?xml version="1.0" encoding="UTF-8" standalone="no"?>
<!-- Created with Inkscape (http://www.inkscape.org/) -->

<svg
   xmlns:dc="http://purl.org/dc/elements/1.1/"
   xmlns:cc="http://creativecommons.org/ns#"
   xmlns:rdf="http://www.w3.org/1999/02/22-rdf-syntax-ns#"
   xmlns:svg="http://www.w3.org/2000/svg"
   xmlns="http://www.w3.org/2000/svg"
   xmlns:sodipodi="http://sodipodi.sourceforge.net/DTD/sodipodi-0.dtd"
   xmlns:inkscape="http://www.inkscape.org/namespaces/inkscape"
   version="1.1"
   width="128"
   height="128"
   id="svg2"
   inkscape:version="0.91 r13725"
   sodipodi:docname="hisc-apps-kwhirlmon.svg">
  <sodipodi:namedview
     pagecolor="#888888"
     bordercolor="#666666"
     borderopacity="1"
     objecttolerance="10"
     gridtolerance="10"
     guidetolerance="10"
     inkscape:pageopacity="1"
     inkscape:pageshadow="2"
     inkscape:window-width="1920"
     inkscape:window-height="1017"
     id="namedview7"
     showgrid="true"
     inkscape:zoom="5.2149125"
     inkscape:cx="20.662309"
     inkscape:cy="64"
     inkscape:window-x="1272"
     inkscape:window-y="-8"
     inkscape:window-maximized="1"
     inkscape:current-layer="svg2"
     showguides="true">
    <inkscape:grid
       type="xygrid"
       id="grid3335" />
  </sodipodi:namedview>
  <defs
     id="defs4" />
  <metadata
     id="metadata7">
    <rdf:RDF>
      <cc:Work
         rdf:about="">
        <dc:format>image/svg+xml</dc:format>
        <dc:type
           rdf:resource="http://purl.org/dc/dcmitype/StillImage" />
        <dc:title></dc:title>
      </cc:Work>
    </rdf:RDF>
  </metadata>
  <g
     transform="matrix(0.7350662,0,0,0.72176731,16.783334,-648.23903)"
     id="layer1">
    <path
       d="m 15.070045,16.596125 c 0.966004,1.1286 -1.044738,1.858966 -1.875808,1.605562 -2.252148,-0.686708 -2.392686,-3.650617 -1.335316,-5.357179 1.891387,-3.0526397 6.190752,-3.0937117 8.83855,-1.06507 3.885751,2.977113 3.818597,8.766459 0.794823,12.319921 C 17.46208,28.835564 10.137354,28.653193 5.6910027,24.623936 0.09572346,19.553527 0.39653983,10.67439 5.4366721,5.3412734 11.540948,-1.1178459 21.984279,-0.69694796 28.200705,5.3571891 35.526549,12.49178 34.984651,24.505013 27.914543,31.602593 19.751824,39.79703 6.1650627,39.133574 -1.8122315,31.046185 -10.87654,21.856779 -10.091165,6.6940375 -0.98557678,-2.1619608 9.2295172,-12.097053 25.969974,-11.189512 35.70394,-1.0650598 46.510486,10.175001 45.480607,28.494449 34.336792,39.105827"
       transform="matrix(2.1261224,0,0,2.3020376,26.995776,952.3391)"
       id="path2985"
       style="fill:none;stroke:#000000;stroke-width:2.2600584;stroke-linecap:round;stroke-linejoin:miter;stroke-miterlimit:4;stroke-dasharray:none;stroke-opacity:1"
       inkscape:connector-curvature="0" />
  </g>
  <path
     style="fill:#ffffff;stroke:#ffffff;stroke-width:0.72378772"
     d="m 89.078068,105.21485 c -0.306609,-0.26454 -0.524298,-0.5999 -0.580501,-0.89429 -0.173124,-0.90683 0.02043,-1.29938 1.351536,-2.74114 13.241677,-14.342483 16.266487,-36.573778 7.328758,-53.863685 -3.048297,-5.8969 -6.99767,-10.540421 -12.241228,-14.392784 -5.154058,-3.786608 -10.868634,-6.068318 -17.779599,-7.099019 -1.870654,-0.27899 -7.805427,-0.235258 -9.800816,0.07222 -3.878144,0.597598 -7.142682,1.601225 -10.57088,3.249837 -3.6839,1.771579 -6.622095,3.836184 -9.603079,6.747874 -6.073075,5.931905 -9.917928,13.846764 -11.140282,22.932936 -0.330142,2.454057 -0.328119,7.73103 0.0039,10.089439 1.690958,12.012475 8.349287,21.799785 18.149279,26.678264 7.230546,3.599393 15.255687,4.255748 22.681888,1.855086 11.734935,-3.793537 19.653403,-14.672532 20.117582,-27.639062 0.09594,-2.680056 -0.0781,-4.790783 -0.606922,-7.36068 C 84.469927,53.530165 78.08754,46.058306 69.712141,43.327766 67.0644,42.464553 65.854456,42.28868 62.53668,42.284765 c -2.648338,-0.0032 -3.184987,0.03489 -4.463642,0.316216 -8.638031,1.900497 -14.88792,8.349154 -16.701083,17.232235 -0.465504,2.280606 -0.469059,6.386866 -0.0075,8.624898 0.795158,3.855321 2.437804,7.025292 4.993264,9.635982 2.021489,2.065178 3.902027,3.277419 6.43115,4.145675 3.303469,1.134092 7.243915,1.112364 10.216776,-0.05634 4.988476,-1.961086 8.154391,-6.166603 8.797664,-11.686587 0.560614,-4.810664 -1.772726,-9.580227 -5.556355,-11.357712 -1.467959,-0.689623 -2.387389,-0.894759 -3.920326,-0.874673 -2.66649,0.03493 -4.758762,1.31847 -5.85459,3.591576 -0.413159,0.857023 -0.445937,1.031198 -0.445937,2.369634 0,1.233263 0.04755,1.539475 0.32496,2.09295 0.381591,0.761313 1.034486,1.209038 1.763083,1.209038 0.510722,0 0.514137,-0.0038 0.424641,-0.472573 -0.206437,-1.081318 0.606357,-2.141501 1.641791,-2.141501 0.747479,0 1.266177,0.38319 1.713967,1.266198 1.219056,2.403889 -0.831347,4.973435 -3.981229,4.989239 -2.26174,0.01135 -4.388931,-1.934324 -5.103218,-4.667744 -0.305574,-1.169365 -0.279229,-3.357876 0.05592,-4.645566 1.179126,-4.53036 5.369581,-7.482488 10.230674,-7.207394 7.823912,0.442762 13.298658,8.268101 11.963983,17.100746 -0.880276,5.825514 -4.336208,10.648286 -9.443774,13.178836 -2.491811,1.234572 -4.910096,1.771699 -7.910658,1.757044 -9.460777,-0.04621 -17.42086,-7.062487 -19.616188,-17.290355 -0.488705,-2.276838 -0.616438,-6.390674 -0.273247,-8.800266 1.084066,-7.611375 5.014179,-13.967012 11.125331,-17.991486 8.793494,-5.790918 20.388885,-5.341316 29.281981,1.135386 1.503264,1.094804 3.945178,3.428086 5.170608,4.940589 2.726805,3.365595 4.715784,7.28843 5.880457,11.597939 1.334446,4.937705 1.488741,10.962803 0.411896,16.084414 -2.413412,11.478509 -10.098307,20.619678 -20.662191,24.577637 -1.530659,0.5735 -4.526837,1.33579 -6.418239,1.63295 -2.153043,0.33826 -7.208391,0.33523 -9.431159,-0.006 C 45.819423,101.43798 39.169945,98.109732 33.901139,92.91874 29.233807,88.320341 25.741761,82.297738 23.882241,75.639512 20.564083,63.758465 22.770582,50.104903 29.649978,39.949417 36.816192,29.370526 47.894219,23.05617 60.410751,22.416107 c 8.68386,-0.444071 17.147708,1.843477 24.597769,6.648106 4.30781,2.778156 8.521519,6.821877 11.598073,11.130183 6.223347,8.714965 9.299747,19.030286 9.012807,30.22043 -0.11618,4.531142 -0.56647,7.787563 -1.66492,12.040571 -2.16751,8.392273 -6.61346,16.503038 -12.0855,22.047653 -1.054027,1.06801 -1.155058,1.13506 -1.71027,1.13506 -0.459235,0 -0.698839,-0.0939 -1.080642,-0.42326 z"
     id="path3339"
     inkscape:connector-curvature="0" />
</svg>
